<?xml version="1.0" standalone="no"?>
<!DOCTYPE svg PUBLIC "-//W3C//DTD SVG 20010904//EN"
 "http://www.w3.org/TR/2001/REC-SVG-20010904/DTD/svg10.dtd">
<svg version="1.0" xmlns="http://www.w3.org/2000/svg"
 width="96.000000pt" height="96.000000pt" viewBox="0 0 96.000000 96.000000"
 preserveAspectRatio="xMidYMid meet">

<g transform="translate(0.000000,96.000000) scale(0.100000,-0.100000)"
fill="#000000" stroke="none">
<path d="M60 480 l0 -210 423 2 422 3 0 205 0 205 -422 3 -423 2 0 -210z m360
162 c19 -9 44 -32 56 -49 l22 -33 16 25 c55 84 209 95 275 19 17 -19 31 -46
31 -59 0 -23 -4 -25 -43 -25 -37 0 -46 4 -55 25 -24 52 -102 52 -122 0 -13
-34 -13 -86 0 -119 21 -56 98 -59 125 -6 13 26 21 30 55 30 34 0 40 -3 40 -20
0 -35 -29 -79 -63 -97 -45 -24 -152 -23 -194 2 -17 10 -37 30 -45 43 -13 25
-13 25 -18 -19 -5 -41 -7 -44 -37 -47 -25 -2 -33 1 -33 12 0 20 -5 20 -33 2
-34 -22 -100 -29 -148 -16 -81 22 -119 78 -119 175 0 73 28 128 78 154 49 27
162 28 212 3z"/>
<path d="M285 568 c-30 -17 -35 -28 -35 -85 0 -40 5 -58 20 -73 22 -22 60 -26
91 -10 30 16 23 30 -16 30 -34 0 -35 1 -35 40 l0 40 90 0 c53 0 90 4 90 10 0
6 -22 10 -49 10 -37 0 -52 5 -62 20 -17 24 -67 34 -94 18z"/>
</g>
</svg>
