<svg xmlns="http://www.w3.org/2000/svg" width="96" height="96" viewBox="0 0 480 480">
  <defs>
    <style>
      .cls-1 {
        fill: #9e464a;
        stroke: #fff;
        stroke-width: 10px;
      }

      .cls-1, .cls-2, .cls-3 {
        fill-rule: evenodd;
      }

      .cls-2 {
        fill: #c3ebcd;
      }

      .cls-3 {
        fill: #369e50;
      }
    </style>
  </defs>
  <path class="cls-1" d="M21,65H459.952V415H21V65Z"/>
  <path id="G_" data-name="G      " class="cls-2" d="M158.875,149.248q-45,0-69.375,22.625T65.125,238.248q0,44.25,21.5,66.625t64.25,22.375q38,0,61.5-20l5.5,17h28.5v-96h-91.75v35h39q0,10-9.5,16.375t-23,6.375q-19.5,0-29.5-10.375t-10-29.375v-16q0-19,10-29.375t29.5-10.375q13.5,0,23,6.625t9.5,17.375h52.75q0-21-11.625-35.625t-31.375-22.125q-19.752-7.5-44.5-7.5h0Z"/>
  <path id="C" class="cls-3" d="M331.563,148.748q-44,0-66.625,22.5t-22.625,66.5q0,44,22.625,66.5t66.625,22.5q39.5,0,61.125-18.75t21.625-54h-51q0,15-8.25,23.25t-24.25,8.25q-16.254,0-24.125-10.625t-7.875-29.125v-16q0-18.75,7.875-29.25T331.313,190q14.5,0,22.375,8.75t7.875,23.75h52.75q0-35.5-22.25-54.625t-60.5-19.125h0Z"/>
</svg>
